<svg xmlns="http://www.w3.org/2000/svg" viewBox="0 0 24 24" fill="#ffffff">
  <title>Apple</title>
  <path d="M16.365 1.43c0 1.02-.39 2.02-1.13 2.74-.76.75-1.78 1.27-2.83 1.27-.11-1.12.36-2.28 1.12-3.04.76-.77 1.98-1.47 2.84-1.01.02.01.04.02.06.03zm3.17 6.88c-.5-.63-1.07-1.19-1.73-1.65-.88-.63-1.97-1.07-3.07-1.07-1.12 0-2.24.47-3.03.47-.77 0-1.95-.47-3.22-.47-1.46 0-2.84.75-3.8 2.02C2.8 11.3 4.28 16 7.2 18.96c.98 1 2.2 2.12 3.57 2.12.94 0 1.3-.62 2.44-.62 1.14 0 1.46.62 2.45.62 1.47 0 2.73-1.12 3.71-2.12 1.21-1.28 2.03-2.98 2.45-4.77.34-1.5.04-3.05-.84-4.19z"/>
</svg>
