<svg xmlns="http://www.w3.org/2000/svg" viewBox="0 0 533.5 544.3">
  <title>Google G</title>
  <path fill="#4285F4" d="M533.5 278.4c0-18.5-1.5-37.1-4.7-55.2H272v104.4h147.4c-6.4 34.6-25.1 63.8-53.6 83.4v69.3h86.6c50.8-46.8 81-115.9 81-201.9z"/>
  <path fill="#34A853" d="M272 544.3c72.6 0 133.7-24.1 178.2-65.4l-86.6-69.3c-24.1 16.2-55 25.7-91.6 25.7-70.5 0-130.2-47.6-151.6-111.4H32.6v69.9C77.1 485.6 167.4 544.3 272 544.3z"/>
  <path fill="#FBBC05" d="M120.4 327.9c-10.9-32.6-10.9-67.4 0-99.9V157.9H32.6c-40.4 79.5-40.4 173.1 0 252.6l87.8-69.6z"/>
  <path fill="#EA4335" d="M272 107.7c39.4 0 74.8 13.6 102.7 40.4l77.1-77.1C396.2 24.1 335.1 0 272 0 167.4 0 77.1 58.7 32.6 157.9l87.8 69.9C141.8 155.3 201.5 107.7 272 107.7z"/>
</svg>
