<svg width="24" height="24" viewBox="0 0 24 24" fill="none" xmlns="http://www.w3.org/2000/svg">
<g clip-path="url(#clip0_2_1655)">
<path opacity="0.2" d="M20.9531 17.4379C21.4893 16.4369 21.7643 15.3167 21.7526 14.1812C21.7409 13.0457 21.4429 11.9314 20.8861 10.9417C20.3294 9.95188 19.532 9.11856 18.5677 8.51884C17.6033 7.91912 16.5033 7.57239 15.3694 7.51074C15.7274 8.5287 15.8362 9.61767 15.6866 10.6863C15.5369 11.755 15.1333 12.7722 14.5094 13.6527C13.8856 14.5332 13.0598 15.2513 12.1011 15.7468C11.1425 16.2423 10.0791 16.5007 8.99999 16.5004C8.87624 16.5004 8.75343 16.5004 8.63062 16.4901C8.95399 17.4087 9.47218 18.2465 10.1497 18.9461C10.8271 19.6457 11.6479 20.1905 12.5556 20.5433C13.4633 20.896 14.4366 21.0482 15.4087 20.9896C16.3808 20.931 17.3287 20.6628 18.1875 20.2036L20.79 20.9686C20.9192 21.0065 21.0563 21.009 21.1868 20.9757C21.3173 20.9423 21.4364 20.8745 21.5316 20.7793C21.6269 20.684 21.6947 20.5649 21.728 20.4344C21.7613 20.3039 21.7589 20.1668 21.7209 20.0376L20.9531 17.4379Z" fill="#F8F9FA"/>
<path d="M3.04698 12.9374C2.28297 11.5101 2.0574 9.85572 2.41141 8.27596C2.76542 6.6962 3.67542 5.29629 4.97548 4.3315C6.27554 3.36672 7.87905 2.90132 9.49362 3.02018C11.1082 3.13904 12.6263 3.83423 13.771 4.97899C14.9158 6.12375 15.611 7.64183 15.7298 9.2564C15.8487 10.871 15.3833 12.4745 14.4185 13.7745C13.4537 15.0746 12.0538 15.9846 10.4741 16.3386C8.8943 16.6926 7.23993 16.4671 5.8126 15.703L3.2101 16.468C3.08087 16.506 2.94381 16.5084 2.81331 16.4751C2.68281 16.4418 2.56368 16.374 2.46845 16.2788C2.37321 16.1835 2.30538 16.0644 2.27207 15.9339C2.23876 15.8034 2.24121 15.6663 2.27916 15.5371L3.04698 12.9374Z" stroke="#F8F9FA" stroke-width="2" stroke-linecap="round" stroke-linejoin="round"/>
<path d="M15.3694 7.51074C16.5033 7.57239 17.6033 7.91912 18.5677 8.51884C19.532 9.11856 20.3294 9.95188 20.8861 10.9417C21.4429 11.9314 21.7409 13.0457 21.7526 14.1812C21.7643 15.3167 21.4893 16.4369 20.9531 17.4379L21.7181 20.0404C21.7561 20.1697 21.7585 20.3067 21.7252 20.4372C21.6919 20.5677 21.6241 20.6868 21.5288 20.7821C21.4336 20.8773 21.3145 20.9452 21.184 20.9785C21.0535 21.0118 20.9164 21.0093 20.7872 20.9714L18.1875 20.2036C17.3287 20.6628 16.3808 20.931 15.4087 20.9896C14.4366 21.0482 13.4633 20.896 12.5556 20.5433C11.6479 20.1905 10.8271 19.6457 10.1497 18.9461C9.47218 18.2465 8.95399 17.4087 8.63062 16.4901" stroke="#F8F9FA" stroke-width="2" stroke-linecap="round" stroke-linejoin="round"/>
</g>
<defs>
<clipPath id="clip0_2_1655">
<rect width="24" height="24" fill="white"/>
</clipPath>
</defs>
</svg>
