<svg width="22" height="22" viewBox="0 0 22 22" fill="none" xmlns="http://www.w3.org/2000/svg">
<path d="M10.75 13.75V16.75V13.75ZM20.75 10.954V12.475C20.75 16.375 20.75 18.326 19.578 19.538C18.406 20.75 16.521 20.75 12.75 20.75H8.75C4.979 20.75 3.093 20.75 1.922 19.538C0.751 18.326 0.75 16.376 0.75 12.475V10.954C0.75 8.665 0.75 7.521 1.27 6.573C1.788 5.624 2.737 5.036 4.634 3.858L6.634 2.617C8.639 1.372 9.642 0.75 10.75 0.75C11.858 0.75 12.86 1.372 14.866 2.617L16.866 3.858C18.763 5.036 19.712 5.624 20.231 6.573" fill="#464647"/>
<path d="M10.75 13.75V16.75M20.75 10.954V12.475C20.75 16.375 20.75 18.326 19.578 19.538C18.406 20.75 16.521 20.75 12.75 20.75H8.75C4.979 20.75 3.093 20.75 1.922 19.538C0.751 18.326 0.75 16.376 0.75 12.475V10.954C0.75 8.665 0.75 7.521 1.27 6.573C1.788 5.624 2.737 5.036 4.634 3.858L6.634 2.617C8.639 1.372 9.642 0.75 10.75 0.75C11.858 0.75 12.86 1.372 14.866 2.617L16.866 3.858C18.763 5.036 19.712 5.624 20.231 6.573" stroke="#F8F9FA" stroke-width="1.5" stroke-linecap="round"/>
</svg>
