<svg width="21" height="22" viewBox="0 0 21 22" fill="none" xmlns="http://www.w3.org/2000/svg">
<path d="M18.848 14.403C18.2827 17.2315 17.9996 18.6451 17.0659 19.5557C16.8925 19.7241 16.7066 19.8764 16.508 20.0125C15.4311 20.7504 13.989 20.7504 11.1048 20.7504H9.31534C6.43113 20.7504 4.99008 20.7504 3.91429 20.0136C3.71556 19.8772 3.52891 19.724 3.3564 19.5557C2.42061 18.6451 2.1364 17.2315 1.57113 14.403C0.759553 10.3441 0.353238 8.31462 1.28797 6.87673C1.45732 6.61605 1.65502 6.37493 1.87745 6.15778C3.10482 4.96094 5.17324 4.96094 9.31324 4.96094H11.1059C15.2448 4.96094 17.3143 4.96094 18.5417 6.15883C18.7637 6.37604 18.9611 6.61716 19.1301 6.87778C19.668 7.70515 19.7617 8.73041 19.589 10.2241" fill="#D9D9D9" fill-opacity="0.25"/>
<path d="M18.848 14.403C18.2827 17.2315 17.9996 18.6451 17.0659 19.5557C16.8925 19.7241 16.7066 19.8764 16.508 20.0125C15.4311 20.7504 13.989 20.7504 11.1048 20.7504H9.31534C6.43113 20.7504 4.99008 20.7504 3.91429 20.0136C3.71556 19.8772 3.52891 19.724 3.3564 19.5557C2.42061 18.6451 2.1364 17.2315 1.57113 14.403C0.759553 10.3441 0.353238 8.31462 1.28797 6.87673C1.45732 6.61605 1.65502 6.37493 1.87745 6.15778C3.10482 4.96094 5.17324 4.96094 9.31324 4.96094H11.1059C15.2448 4.96094 17.3143 4.96094 18.5417 6.15883C18.7637 6.37604 18.9611 6.61716 19.1301 6.87778C19.668 7.70515 19.7617 8.73041 19.589 10.2241" stroke="#F8F9FA" stroke-width="1.5" stroke-linecap="round"/>
<path d="M13.3681 10.2234C13.9494 10.2234 14.4207 9.75215 14.4207 9.1708C14.4207 8.58944 13.9494 8.11816 13.3681 8.11816C12.7867 8.11816 12.3154 8.58944 12.3154 9.1708C12.3154 9.75215 12.7867 10.2234 13.3681 10.2234Z" fill="#F8F9FA"/>
<path d="M7.05214 10.2234C7.6335 10.2234 8.10477 9.75215 8.10477 9.1708C8.10477 8.58944 7.6335 8.11816 7.05214 8.11816C6.47079 8.11816 5.99951 8.58944 5.99951 9.1708C5.99951 9.75215 6.47079 10.2234 7.05214 10.2234Z" fill="#F8F9FA"/>
<path d="M7.05225 4.96053V3.90789C7.05225 3.07037 7.38495 2.26715 7.97717 1.67493C8.56939 1.08271 9.37261 0.75 10.2101 0.75C11.0477 0.75 11.8509 1.08271 12.4431 1.67493C13.0353 2.26715 13.368 3.07037 13.368 3.90789V4.96053" stroke="#F8F9FA" stroke-width="1.5" stroke-linecap="round"/>
</svg>
